<?xml version="1.0" encoding="UTF-8" standalone="no"?>
<!-- Created with Inkscape (http://www.inkscape.org/) -->

<svg
   xmlns:dc="http://purl.org/dc/elements/1.1/"
   xmlns:cc="http://creativecommons.org/ns#"
   xmlns:rdf="http://www.w3.org/1999/02/22-rdf-syntax-ns#"
   xmlns:svg="http://www.w3.org/2000/svg"
   xmlns="http://www.w3.org/2000/svg"
   xmlns:sodipodi="http://sodipodi.sourceforge.net/DTD/sodipodi-0.dtd"
   xmlns:inkscape="http://www.inkscape.org/namespaces/inkscape"
   width="16px"
   height="16px"
   viewBox="0 0 16 16"
   version="1.1"
   id="SVGRoot"
   inkscape:version="0.92.4 (f8dce91, 2019-08-02)"
   sodipodi:docname="animal.svg">
  <defs
     id="defs3713" />
  <sodipodi:namedview
     id="base"
     pagecolor="#ffffff"
     bordercolor="#666666"
     borderopacity="1.0"
     inkscape:pageopacity="0.0"
     inkscape:pageshadow="2"
     inkscape:zoom="45.254834"
     inkscape:cx="7.4506482"
     inkscape:cy="6.8584032"
     inkscape:document-units="px"
     inkscape:current-layer="layer1"
     showgrid="false"
     inkscape:window-width="1920"
     inkscape:window-height="1015"
     inkscape:window-x="0"
     inkscape:window-y="0"
     inkscape:window-maximized="1"
     inkscape:grid-bbox="true" />
  <metadata
     id="metadata3716">
    <rdf:RDF>
      <cc:Work
         rdf:about="">
        <dc:format>image/svg+xml</dc:format>
        <dc:type
           rdf:resource="http://purl.org/dc/dcmitype/StillImage" />
        <dc:title></dc:title>
      </cc:Work>
    </rdf:RDF>
  </metadata>
  <g
     inkscape:label="Layer 1"
     inkscape:groupmode="layer"
     id="layer1">
    <ellipse
       id="path3730"
       cx="7.96875"
       cy="7.96875"
       style="stroke-width:1.03443909"
       rx="7.96875"
       ry="8.03125" />
    <path
       style="fill:#ac9d93;stroke-width:0.02212778"
       d="M 7.3694548,15.968202 C 6.6282708,15.89576 6.1123955,15.793718 5.5302991,15.604411 4.3103758,15.207673 3.2636137,14.565403 2.3497321,13.652886 1.6865374,12.990681 1.15618,12.244102 0.7679083,11.426166 -0.1673434,9.455958 -0.2629464,7.199255 0.5014758,5.137046 0.6462153,4.746577 0.9796599,4.072942 1.2088823,3.707923 2.5165392,1.625578 4.6718191,0.270018 7.1146318,-0.006488 c 0.401084,-0.0454 1.2293292,-0.05106 1.6175712,-0.01105 1.568744,0.161655 2.970223,0.73413 4.221195,1.724269 0.292087,0.231187 0.847832,0.777562 1.117001,1.098171 1.02051,1.215535 1.630645,2.643864 1.834649,4.294924 0.04507,0.364814 0.03788,1.463734 -0.01199,1.834058 -0.211635,1.571073 -0.770635,2.892354 -1.72673,4.081386 -1.362235,1.694121 -3.336208,2.746889 -5.522752,2.945417 -0.223472,0.02029 -1.0910502,0.02541 -1.2741142,0.0075 z"
       id="path3734"
       inkscape:connector-curvature="0" />
    <ellipse
       style="fill:#00ffff"
       id="path3738"
       cx="10.849669"
       cy="3.3604662"
       rx="1.5026019"
       ry="1.5688932" />
    <ellipse
       style="fill:#00ffff"
       id="path3738-3"
       cx="4.8275728"
       cy="3.3825634"
       rx="1.5026019"
       ry="1.5688932" />
  </g>
</svg>
