<?xml version="1.0" encoding="UTF-8" standalone="no"?>
<!-- Created with Inkscape (http://www.inkscape.org/) -->

<svg
   xmlns:dc="http://purl.org/dc/elements/1.1/"
   xmlns:cc="http://creativecommons.org/ns#"
   xmlns:rdf="http://www.w3.org/1999/02/22-rdf-syntax-ns#"
   xmlns:svg="http://www.w3.org/2000/svg"
   xmlns="http://www.w3.org/2000/svg"
   xmlns:sodipodi="http://sodipodi.sourceforge.net/DTD/sodipodi-0.dtd"
   xmlns:inkscape="http://www.inkscape.org/namespaces/inkscape"
   width="16px"
   height="16px"
   viewBox="0 0 16 16"
   version="1.1"
   id="SVGRoot"
   inkscape:version="0.92.4 (f8dce91, 2019-08-02)"
   sodipodi:docname="jungle.svg">
  <defs
     id="defs3713" />
  <sodipodi:namedview
     id="base"
     pagecolor="#ffffff"
     bordercolor="#666666"
     borderopacity="1.0"
     inkscape:pageopacity="0.0"
     inkscape:pageshadow="2"
     inkscape:zoom="45.254834"
     inkscape:cx="8.2536697"
     inkscape:cy="8.7423598"
     inkscape:document-units="px"
     inkscape:current-layer="layer1"
     showgrid="false"
     inkscape:window-width="1920"
     inkscape:window-height="1015"
     inkscape:window-x="0"
     inkscape:window-y="0"
     inkscape:window-maximized="1"
     inkscape:grid-bbox="true" />
  <metadata
     id="metadata3716">
    <rdf:RDF>
      <cc:Work
         rdf:about="">
        <dc:format>image/svg+xml</dc:format>
        <dc:type
           rdf:resource="http://purl.org/dc/dcmitype/StillImage" />
        <dc:title></dc:title>
      </cc:Work>
    </rdf:RDF>
  </metadata>
  <g
     inkscape:label="Layer 1"
     inkscape:groupmode="layer"
     id="layer1">
    <path
       sodipodi:type="spiral"
       style="fill:#ffffff;fill-rule:evenodd;stroke:#000000"
       id="path3903"
       sodipodi:cx="7.2699418"
       sodipodi:cy="7.7135925"
       sodipodi:expansion="1"
       sodipodi:revolution="3"
       sodipodi:radius="8.2198792"
       sodipodi:argument="-17.624315"
       sodipodi:t0="0"
       d="M 7.2699418,7.7135925 C 7.4095389,8.101362 6.8161086,8.0930784 6.6254434,7.945612 6.1087527,7.5459873 6.363781,6.7633046 6.8059028,6.4245958 7.5967551,5.8187251 8.7160835,6.230891 9.203437,7.0175341 9.9186478,8.1719644 9.3318752,9.6671624 8.1980197,10.291586 6.6867687,11.123845 4.8046121,10.356187 4.0474499,8.8736899 3.0946386,7.0081189 4.0458901,4.7343841 5.8778249,3.8466022 8.0965435,2.7713795 10.764233,3.9076115 11.78143,6.0894562 12.980162,8.6606846 11.65815,11.72372 9.1260976,12.86958 6.202743,14.19252 2.7434767,12.684227 1.4694564,9.8017679 0.02183349,6.526535 1.7167434,2.6704373 4.949747,1.2686087 c 3.6269414,-1.57263978 7.880297,0.3091209 9.409677,3.8927695 1.697902,3.9785292 -0.37088,8.6294558 -4.305248,10.2861948" />
    <path
       style="fill:#00ff00;stroke-width:0.02209709"
       d="M 10.23044,15.839044 C 10.2196,15.811704 10.13529,15.61035 10.043089,15.391602 9.933549,15.13172 9.8845198,14.990856 9.901621,14.985155 c 0.014394,-0.0048 0.200872,-0.09611 0.414394,-0.202918 1.171764,-0.586133 2.147472,-1.45741 2.89372,-2.584002 C 14.844432,9.7303707 14.88441,6.6046021 13.311332,4.2546461 12.947166,3.7106337 12.421177,3.1355066 11.919576,2.7328725 10.403072,1.5155756 8.4629258,0.98282176 6.635719,1.2819533 4.024445,1.7094443 1.9902023,3.7196078 1.5254091,6.3317722 c -0.279178,1.5689964 0.1332541,3.2350003 1.0995312,4.4415148 0.8800997,1.098911 2.0971672,1.806052 3.5051994,2.036591 0.3321786,0.05439 1.158042,0.05494 1.4885366,9.9e-4 C 9.7891234,12.45658 11.399067,10.824646 11.699736,8.6740635 11.754005,8.2858979 11.733541,7.6499422 11.654584,7.2708984 11.510309,6.5782803 11.220053,5.956754 10.80323,5.4478888 10.648647,5.2591717 10.289013,4.9095377 10.103471,4.7675869 9.6234891,4.4003726 8.9982187,4.1186635 8.3914183,3.9962388 8.054177,3.9281987 7.3539466,3.9231765 7.0140231,3.9863598 5.8975508,4.1938835 4.9759025,4.8967605 4.4951819,5.9073042 4.2606859,6.4002487 4.1711611,6.7856124 4.1707017,7.3040441 4.1699769,8.1229953 4.4578259,8.8188853 5.0237602,9.3663488 5.8388057,10.154793 6.9627716,10.361562 7.8979066,9.8950862 8.5619541,9.5638378 9.0191433,8.84032 9.0185454,8.1216363 9.0183178,7.8468179 8.9730824,7.6479645 8.8551827,7.403481 8.6888274,7.058518 8.3266418,6.759441 7.9610084,6.6651108 7.5448608,6.5577486 7.1267508,6.6977683 6.9415946,7.0064995 6.8149399,7.2176847 6.7921587,7.4371671 6.8887733,7.5154007 c 0.040608,0.032883 0.040905,0.036504 0.00484,0.059024 -0.02113,0.013196 -0.054887,0.058698 -0.075016,0.1011163 -0.037324,0.078654 -0.05,0.2141307 -0.020025,0.2140072 0.00912,-4.42e-5 0.2204185,-0.073776 0.4695631,-0.1638643 C 7.5619365,7.6194508 7.7288955,7.569387 7.743227,7.5832264 7.75538,7.5949624 7.765233,7.6960464 7.765121,7.8078577 7.7649438,7.985617 7.7574416,8.0253703 7.7053997,8.124362 7.5463963,8.4268092 7.1768259,8.5791781 6.768896,8.5104699 6.2392299,8.4212575 5.8539261,7.9340373 5.8539261,7.3534821 5.8539261,6.8623315 6.117994,6.341898 6.5256512,6.0296249 7.5790605,5.2226929 9.2132786,5.757448 9.7913211,7.09823 10.103263,7.8217863 10.071456,8.6169204 9.6999976,9.3811702 9.2811467,10.242927 8.4897563,10.845198 7.4891105,11.06372 7.2038007,11.126027 6.4775408,11.121028 6.1796701,11.054708 4.6356368,10.710934 3.4870885,9.4950949 3.2331148,7.935522 3.0451665,6.7813907 3.4104214,5.508155 4.2003067,4.5640053 4.6236451,4.0579889 5.1017985,3.6835606 5.6818569,3.4038455 7.2828,2.6318406 9.1897218,2.8555155 10.692307,3.9915526 c 1.095248,0.828068 1.820828,2.1077786 1.9909,3.5113653 0.0382,0.3152434 0.03273,0.961571 -0.01094,1.2926632 -0.163996,1.2434239 -0.759442,2.4469539 -1.652442,3.3399539 -0.868023,0.868024 -1.9517837,1.42138 -3.1992582,1.633506 -0.3538296,0.06017 -1.1546254,0.08275 -1.5388508,0.04339 C 4.2716907,13.606537 2.4609838,12.457132 1.3907022,10.707699 1.2585287,10.491654 1.0330954,10.036094 0.93007386,9.7768509 0.43487477,8.5307338 0.32976071,7.155216 0.62808761,5.8250723 1.0103073,4.1208778 2.0364022,2.5750295 3.4629954,1.5541833 4.4168889,0.87159304 5.5356865,0.43609404 6.7539566,0.27315598 c 0.3543586,-0.0473939 1.3607878,-0.0542678 1.7074257,-0.0116617 1.4947763,0.1837263 2.7715757,0.70927097 3.9816417,1.63888682 0.347112,0.2666641 1.068122,0.9853818 1.330982,1.3267504 0.907873,1.1790292 1.426281,2.4355602 1.618197,3.922233 0.0495,0.3834253 0.05648,1.440022 0.0119,1.8009126 -0.111622,0.9036232 -0.318331,1.6729629 -0.665793,2.4779809 -0.694779,1.609703 -1.916006,3.010437 -3.418104,3.920529 -0.221923,0.134459 -1.012348,0.539975 -1.052509,0.539975 -0.0096,0 -0.02641,-0.02237 -0.03725,-0.04972 z"
       id="path3911"
       inkscape:connector-curvature="0" />
  </g>
</svg>
